G04 Layer: TopSilkscreenLayer*
G04 EasyEDA Pro v2.2.32.3, 2024-11-26 12:07:46*
G04 Gerber Generator version 0.3*
G04 Scale: 100 percent, Rotated: No, Reflected: No*
G04 Dimensions in millimeters*
G04 Leading zeros omitted, absolute positions, 3 integers and 5 decimals*
%FSLAX35Y35*%
%MOMM*%
%ADD10C,0.1524*%
%ADD11C,0.254*%
%ADD12C,0.12*%
G75*


G04 Text Start*
G54D10*
G01X565861Y-330731D02*
G01X565861Y-377213D01*
G01X568909Y-386357D01*
G01X575259Y-392707D01*
G01X584403Y-395755D01*
G01X590753Y-395755D01*
G01X599897Y-392707D01*
G01X605993Y-386357D01*
G01X609295Y-377213D01*
G01X609295Y-330731D01*
G01X639521Y-343177D02*
G01X645617Y-339875D01*
G01X654761Y-330731D01*
G01X654761Y-395755D01*
G01X2841020Y-389666D02*
G01X2841020Y-436148D01*
G01X2844068Y-445292D01*
G01X2850418Y-451642D01*
G01X2859562Y-454690D01*
G01X2865912Y-454690D01*
G01X2875056Y-451642D01*
G01X2881152Y-445292D01*
G01X2884454Y-436148D01*
G01X2884454Y-389666D01*
G01X2917728Y-405160D02*
G01X2917728Y-402112D01*
G01X2920776Y-395762D01*
G01X2923824Y-392714D01*
G01X2929920Y-389666D01*
G01X2942366Y-389666D01*
G01X2948716Y-392714D01*
G01X2951764Y-395762D01*
G01X2954812Y-402112D01*
G01X2954812Y-408208D01*
G01X2951764Y-414304D01*
G01X2945414Y-423702D01*
G01X2914680Y-454690D01*
G01X2957860Y-454690D01*
G01X2916398Y-383840D02*
G01X2919446Y-390190D01*
G01X2925796Y-396286D01*
G01X2931892Y-399334D01*
G01X2944338Y-399334D01*
G01X2950434Y-396286D01*
G01X2956784Y-390190D01*
G01X2959832Y-383840D01*
G01X2962880Y-374696D01*
G01X2962880Y-359202D01*
G01X2959832Y-349804D01*
G01X2956784Y-343708D01*
G01X2950434Y-337358D01*
G01X2944338Y-334310D01*
G01X2931892Y-334310D01*
G01X2925796Y-337358D01*
G01X2919446Y-343708D01*
G01X2916398Y-349804D01*
G01X2886172Y-386888D02*
G01X2880076Y-390190D01*
G01X2870932Y-399334D01*
G01X2870932Y-334310D01*
G04 Text End*

G04 PolygonModel Start*
G54D11*
G01X2476500Y-528290D02*
G01X2476500Y-450405D01*
G01X674799Y-450405D02*
G01X674799Y-528290D01*
G01X674799Y-450365D02*
G01X2476500Y-450405D01*
G01X2341415Y-2400305D02*
G01X2476500Y-2400305D01*
G01X2476500Y-2400305D02*
G01X2476500Y-2315520D01*
G01X674799Y-2315520D02*
G01X674799Y-2400305D01*
G01X674799Y-2400305D02*
G01X808185Y-2400305D01*
G54D12*
G01X2946400Y-1650998D02*
G01X2946400Y-584200D01*
G01X2913400Y-2071597D02*
G01X2913400Y-526600D01*
G01X5833394Y-2071597D02*
G01X2913400Y-2071597D01*
G01X5833394Y-526600D02*
G01X5833394Y-2071597D01*
G01X2913400Y-526600D02*
G01X5833394Y-526600D01*
G01X3200400Y-863600D02*
G01X2971800Y-863600D01*
G01X3200400Y-635000D02*
G01X3200400Y-863600D01*
G01X3479799Y-1650998D02*
G01X2946400Y-1650998D01*
G01X3479799Y-584200D02*
G01X3479799Y-1650998D01*
G01X2946400Y-584200D02*
G01X3479799Y-584200D01*
G54D11*
G01X2477800Y-279700D02*
G01X2477800Y300D01*
G01X2957800Y-279700D02*
G01X2957800Y300D01*
G01X2957800Y300D02*
G01X2477800Y300D01*
G01X2957800Y-279700D02*
G01X2477800Y-279700D01*

G04 Circle Start*
G01X570941Y-490461D02*
G03X607619Y-490461I18339J0D01*
G03X570941Y-490461I-18339J0D01*
G04 Circle End*

M02*

