G04 Layer: TopPasteMaskLayer*
G04 EasyEDA Pro v2.2.32.3, 2024-11-26 12:07:46*
G04 Gerber Generator version 0.3*
G04 Scale: 100 percent, Rotated: No, Reflected: No*
G04 Dimensions in millimeters*
G04 Leading zeros omitted, absolute positions, 3 integers and 5 decimals*
%FSLAX35Y35*%
%MOMM*%
%ADD10R,1.5X0.9*%
%ADD11R,0.9X1.5*%
%ADD12R,1.5X0.9*%
%ADD13R,0.9X0.9*%
G75*


G04 Pad Start*
G54D10*
G01X699795Y-596405D03*
G01X699795Y-723405D03*
G01X699795Y-850405D03*
G01X699795Y-977405D03*
G01X699795Y-1104405D03*
G01X699795Y-1231405D03*
G01X699795Y-1358405D03*
G01X699795Y-1485405D03*
G01X699795Y-1612405D03*
G01X699795Y-1739405D03*
G01X699795Y-1866405D03*
G01X699795Y-1993405D03*
G01X699795Y-2120405D03*
G01X699795Y-2247405D03*
G54D11*
G01X876300Y-2375395D03*
G01X1003300Y-2375395D03*
G01X1130300Y-2375395D03*
G01X1257300Y-2375395D03*
G01X1384300Y-2375395D03*
G01X1511300Y-2375395D03*
G01X1638300Y-2375395D03*
G01X1765300Y-2375395D03*
G01X1892300Y-2375395D03*
G01X2019300Y-2375395D03*
G01X2146300Y-2375395D03*
G01X2273300Y-2372398D03*
G54D12*
G01X2449805Y-2247405D03*
G01X2449805Y-2120405D03*
G01X2449805Y-1993405D03*
G01X2449805Y-1866405D03*
G01X2449805Y-1739405D03*
G01X2449805Y-1612405D03*
G01X2449805Y-1485405D03*
G01X2449805Y-1358405D03*
G01X2449805Y-1231405D03*
G01X2449805Y-1104405D03*
G01X2449805Y-977405D03*
G01X2449805Y-850405D03*
G01X2449805Y-723405D03*
G01X2449805Y-596405D03*
G54D13*
G01X1424788Y-1368412D03*
G01X1284783Y-1368412D03*
G01X1564792Y-1368412D03*
G01X1564792Y-1228407D03*
G01X1424788Y-1228407D03*
G01X1284783Y-1228407D03*
G01X1284783Y-1508417D03*
G01X1424788Y-1508417D03*
G01X1564792Y-1508417D03*
G04 Pad End*

M02*

