;TYPE=PLATED
;Layer: PTH_Through
;EasyEDA Pro v2.2.32.3, 2024-11-26 12:07:46
;Gerber Generator version 0.3
M48
METRIC,LZ,000.00000
;Hole size 1 = 0.24999 METRIC
T01C0.24999
;Hole size 2 = 0.76200 METRIC
T02C0.76200
;Hole size 3 = 0.90002 METRIC
T03C0.90002
%
G05
G90
T01
X14.24762Y-12.9841
X14.24762Y-14.38415
X15.64767Y-14.38415
X15.64767Y-12.9841
X14.94765Y-12.28407
X14.94765Y-13.68412
X14.94765Y-15.08417
X12.84757Y-14.38415
X12.84757Y-12.9841
X13.5476Y-12.28407
X13.5476Y-13.68412
X13.5476Y-15.08417
T02
X30.734Y-7.366
X33.27399Y-7.366
X30.734Y-9.90599
X33.27399Y-9.90599
X30.734Y-12.44599
X33.27399Y-12.44599
X30.734Y-14.98598
X33.27399Y-14.98598
T03
X28.44813Y-1.397
X25.90813Y-1.397
M30