;TYPE=PLATED
;Layer: PTH_Through
;EasyEDA Pro v2.2.32.3, 2024-11-28 11:51:39
;Gerber Generator version 0.3
M48
METRIC,LZ,000.00000
;Hole size 1 = 0.24999 METRIC
T01C0.24999
;Hole size 2 = 0.76200 METRIC
T02C0.76200
;Hole size 3 = 0.90002 METRIC
T03C0.90002
;Hole size 4 = 1.10002 METRIC
T04C1.10002
;Hole size 5 = 1.27000 METRIC
T05C1.27000
%
G05
G90
T01
X34.70021Y-14.36944
X34.70021Y-15.76949
X36.10026Y-15.76949
X36.10026Y-14.36944
X35.40023Y-13.66942
X35.40023Y-15.06946
X35.40023Y-16.46951
X33.30016Y-15.76949
X33.30016Y-14.36944
X34.00019Y-13.66942
X34.00019Y-15.06946
X34.00019Y-16.46951
T02
X48.895Y-6.731
X51.43499Y-6.731
X48.895Y-9.27099
X51.43499Y-9.27099
X48.895Y-11.81099
X51.43499Y-11.81099
X48.895Y-14.35098
X51.43499Y-14.35098
T03
X42.79887Y-1.524
X45.33887Y-1.524
T04
X22.31187Y-2.413
X17.31213Y-2.413
T05
X5.842Y-22.479
X5.842Y-27.47772
X5.842Y-32.639
M30