G04 Layer: TopSolderMaskLayer*
G04 EasyEDA Pro v2.2.32.3, 2024-11-28 11:51:39*
G04 Gerber Generator version 0.3*
G04 Scale: 100 percent, Rotated: No, Reflected: No*
G04 Dimensions in millimeters*
G04 Leading zeros omitted, absolute positions, 3 integers and 5 decimals*
%FSLAX35Y35*%
%MOMM*%
%AMRoundRect*1,1,$1,$2,$3*1,1,$1,$4,$5*1,1,$1,0-$2,0-$3*1,1,$1,0-$4,0-$5*20,1,$1,$2,$3,$4,$5,0*20,1,$1,$4,$5,0-$2,0-$3,0*20,1,$1,0-$2,0-$3,0-$4,0-$5,0*20,1,$1,0-$4,0-$5,$2,$3,0*4,1,4,$2,$3,$4,$5,0-$2,0-$3,0-$4,0-$5,$2,$3,0*%
%ADD10C,1.6*%
%ADD11RoundRect,0.09093X-0.75455X0.45455X0.75455X0.45455*%
%ADD12RoundRect,0.09093X-0.45455X-0.75455X-0.45455X0.75455*%
%ADD13RoundRect,0.09093X0.75455X-0.45455X-0.75455X-0.45455*%
%ADD14RoundRect,0.09224X-0.45468X-0.45468X-0.45468X0.45468*%
%ADD15R,1.524X1.524*%
%ADD16C,1.524*%
%ADD17O,4.2672X2.7432*%
%ADD18RoundRect,0.09794X-1.31182X2.56182X1.31182X2.56182*%
%ADD19RoundRect,0.08467X-0.91017X0.21167X0.91017X0.21167*%
%ADD20C,3.70319*%
G75*


G04 Pad Start*
G54D10*
G01X4279913Y-152400D03*
G01X4533913Y-152400D03*
G54D11*
G01X2745054Y-734939D03*
G01X2745054Y-861939D03*
G01X2745054Y-988939D03*
G01X2745054Y-1115939D03*
G01X2745054Y-1242939D03*
G01X2745054Y-1369939D03*
G01X2745054Y-1496939D03*
G01X2745054Y-1623939D03*
G01X2745054Y-1750939D03*
G01X2745054Y-1877939D03*
G01X2745054Y-2004939D03*
G01X2745054Y-2131939D03*
G01X2745054Y-2258939D03*
G01X2745054Y-2385939D03*
G54D12*
G01X2921559Y-2513929D03*
G01X3048559Y-2513929D03*
G01X3175559Y-2513929D03*
G01X3302559Y-2513929D03*
G01X3429559Y-2513929D03*
G01X3556559Y-2513929D03*
G01X3683559Y-2513929D03*
G01X3810559Y-2513929D03*
G01X3937559Y-2513929D03*
G01X4064559Y-2513929D03*
G01X4191559Y-2513929D03*
G01X4318559Y-2510932D03*
G54D13*
G01X4495063Y-2385939D03*
G01X4495063Y-2258939D03*
G01X4495063Y-2131939D03*
G01X4495063Y-2004939D03*
G01X4495063Y-1877939D03*
G01X4495063Y-1750939D03*
G01X4495063Y-1623939D03*
G01X4495063Y-1496939D03*
G01X4495063Y-1369939D03*
G01X4495063Y-1242939D03*
G01X4495063Y-1115939D03*
G01X4495063Y-988939D03*
G01X4495063Y-861939D03*
G01X4495063Y-734939D03*
G54D14*
G01X3470046Y-1506946D03*
G01X3330042Y-1506946D03*
G01X3610051Y-1506946D03*
G01X3610051Y-1366942D03*
G01X3470046Y-1366942D03*
G01X3330042Y-1366942D03*
G01X3330042Y-1646951D03*
G01X3470046Y-1646951D03*
G01X3610051Y-1646951D03*
G54D15*
G01X4889500Y-673100D03*
G54D16*
G01X5143499Y-673100D03*
G01X4889500Y-927099D03*
G01X5143499Y-927099D03*
G01X4889500Y-1181099D03*
G01X5143499Y-1181099D03*
G01X4889500Y-1435098D03*
G01X5143499Y-1435098D03*
G54D17*
G01X584200Y-2247900D03*
G01X584200Y-2747772D03*
G01X584200Y-3263900D03*
G54D18*
G01X2031213Y-2373751D03*
G54D19*
G01X2351202Y-1950841D03*
G01X2351202Y-2015839D03*
G01X2351202Y-2080838D03*
G01X2351202Y-2145836D03*
G01X2351202Y-2210835D03*
G01X2351202Y-2275834D03*
G01X2351202Y-2340832D03*
G01X2351202Y-2405501D03*
G01X2351202Y-2470499D03*
G01X2351202Y-2535498D03*
G01X2351202Y-2600496D03*
G01X2351202Y-2665495D03*
G01X2351202Y-2730494D03*
G01X2351202Y-2795492D03*
G01X1711198Y-2795822D03*
G01X1711198Y-2730824D03*
G01X1711198Y-2665825D03*
G01X1711198Y-2600827D03*
G01X1711198Y-2535828D03*
G01X1711198Y-2470829D03*
G01X1711198Y-2405831D03*
G01X1711198Y-2340832D03*
G01X1711198Y-2275834D03*
G01X1711198Y-2210835D03*
G01X1711198Y-2145836D03*
G01X1711198Y-2080838D03*
G01X1711198Y-2015839D03*
G01X1711198Y-1950841D03*
G54D20*
G01X2231187Y-241300D03*
G01X1731188Y-241300D03*
G04 Pad End*

M02*

