G04 Layer: TopSilkscreenLayer*
G04 EasyEDA Pro v2.2.32.3, 2024-11-28 11:51:39*
G04 Gerber Generator version 0.3*
G04 Scale: 100 percent, Rotated: No, Reflected: No*
G04 Dimensions in millimeters*
G04 Leading zeros omitted, absolute positions, 3 integers and 5 decimals*
%FSLAX35Y35*%
%MOMM*%
%ADD10C,0.1524*%
%ADD11C,0.254*%
%ADD12C,0.12*%
G75*


G04 Text Start*
G54D10*
G01X4208302Y91740D02*
G01X4205254Y98090D01*
G01X4198904Y104186D01*
G01X4192808Y107234D01*
G01X4180362Y107234D01*
G01X4174266Y104186D01*
G01X4167916Y98090D01*
G01X4164868Y91740D01*
G01X4161820Y82596D01*
G01X4161820Y67102D01*
G01X4164868Y57704D01*
G01X4167916Y51608D01*
G01X4174266Y45258D01*
G01X4180362Y42210D01*
G01X4192808Y42210D01*
G01X4198904Y45258D01*
G01X4205254Y51608D01*
G01X4208302Y57704D01*
G01X4238528Y94788D02*
G01X4244624Y98090D01*
G01X4253768Y107234D01*
G01X4253768Y42210D01*
G01X2611120Y-469265D02*
G01X2611120Y-515747D01*
G01X2614168Y-524891D01*
G01X2620518Y-531241D01*
G01X2629662Y-534289D01*
G01X2636012Y-534289D01*
G01X2645156Y-531241D01*
G01X2651252Y-524891D01*
G01X2654554Y-515747D01*
G01X2654554Y-469265D01*
G01X2684780Y-481711D02*
G01X2690876Y-478409D01*
G01X2700020Y-469265D01*
G01X2700020Y-534289D01*
G01X4719620Y-338666D02*
G01X4719620Y-385148D01*
G01X4722668Y-394292D01*
G01X4729018Y-400642D01*
G01X4738162Y-403690D01*
G01X4744512Y-403690D01*
G01X4753656Y-400642D01*
G01X4759752Y-394292D01*
G01X4763054Y-385148D01*
G01X4763054Y-338666D01*
G01X4796328Y-354160D02*
G01X4796328Y-351112D01*
G01X4799376Y-344762D01*
G01X4802424Y-341714D01*
G01X4808520Y-338666D01*
G01X4820966Y-338666D01*
G01X4827316Y-341714D01*
G01X4830364Y-344762D01*
G01X4833412Y-351112D01*
G01X4833412Y-357208D01*
G01X4830364Y-363304D01*
G01X4824014Y-372702D01*
G01X4793280Y-403690D01*
G01X4836460Y-403690D01*
G01X1084834Y-1988820D02*
G01X1019810Y-1988820D01*
G01X1084834Y-1988820D02*
G01X1084834Y-2016760D01*
G01X1081786Y-2025904D01*
G01X1078738Y-2028952D01*
G01X1072388Y-2032254D01*
G01X1063244Y-2032254D01*
G01X1057148Y-2028952D01*
G01X1053846Y-2025904D01*
G01X1050798Y-2016760D01*
G01X1050798Y-1988820D01*
G01X1072388Y-2062480D02*
G01X1075690Y-2068576D01*
G01X1084834Y-2077720D01*
G01X1019810Y-2077720D01*
G01X1583436Y-1763693D02*
G01X1583436Y-1810175D01*
G01X1586484Y-1819319D01*
G01X1592834Y-1825669D01*
G01X1601978Y-1828717D01*
G01X1608328Y-1828717D01*
G01X1617472Y-1825669D01*
G01X1623568Y-1819319D01*
G01X1626870Y-1810175D01*
G01X1626870Y-1763693D01*
G01X1663192Y-1763693D02*
G01X1697228Y-1763693D01*
G01X1678686Y-1788331D01*
G01X1687830Y-1788331D01*
G01X1694180Y-1791379D01*
G01X1697228Y-1794681D01*
G01X1700276Y-1803825D01*
G01X1700276Y-1810175D01*
G01X1697228Y-1819319D01*
G01X1691132Y-1825669D01*
G01X1681734Y-1828717D01*
G01X1672336Y-1828717D01*
G01X1663192Y-1825669D01*
G01X1660144Y-1822367D01*
G01X1657096Y-1816271D01*
G01X2486343Y-760984D02*
G01X2486343Y-714502D01*
G01X2483295Y-705358D01*
G01X2476945Y-699008D01*
G01X2467801Y-695960D01*
G01X2461451Y-695960D01*
G01X2452307Y-699008D01*
G01X2446211Y-705358D01*
G01X2442909Y-714502D01*
G01X2442909Y-760984D01*
G01X2381949Y-760984D02*
G01X2412683Y-717804D01*
G01X2366455Y-717804D01*
G01X2381949Y-760984D02*
G01X2381949Y-695960D01*
G04 Text End*

G04 PolygonModel Start*
G54D11*
G01X4646900Y-12400D02*
G01X4646900Y-292400D01*
G01X4166900Y-12400D02*
G01X4166900Y-292400D01*
G01X4166900Y-292400D02*
G01X4646900Y-292400D01*
G01X4166900Y-12400D02*
G01X4646900Y-12400D01*
G01X4521759Y-666824D02*
G01X4521759Y-588940D01*
G01X2720058Y-588940D02*
G01X2720058Y-666824D01*
G01X2720058Y-588899D02*
G01X4521759Y-588940D01*
G01X4386674Y-2538839D02*
G01X4521759Y-2538839D01*
G01X4521759Y-2538839D02*
G01X4521759Y-2454054D01*
G01X2720058Y-2454054D02*
G01X2720058Y-2538839D01*
G01X2720058Y-2538839D02*
G01X2853444Y-2538839D01*
G54D12*
G01X4762500Y-1587498D02*
G01X4762500Y-520700D01*
G01X4729500Y-2008097D02*
G01X4729500Y-463100D01*
G01X7649494Y-2008097D02*
G01X4729500Y-2008097D01*
G01X7649494Y-463100D02*
G01X7649494Y-2008097D01*
G01X4729500Y-463100D02*
G01X7649494Y-463100D01*
G01X5016500Y-800100D02*
G01X4787900Y-800100D01*
G01X5016500Y-571500D02*
G01X5016500Y-800100D01*
G01X5295899Y-1587498D02*
G01X4762500Y-1587498D01*
G01X5295899Y-520700D02*
G01X5295899Y-1587498D01*
G01X4762500Y-520700D02*
G01X5295899Y-520700D01*
G54D11*
G01X203200Y-2091436D02*
G02X203200Y-2421636I-140693J-165100D01*
G01X203200Y-2599436D02*
G02X203200Y-2929636I-133536J-165100D01*
G01X965200Y-1993900D02*
G01X203200Y-1993900D01*
G01X965200Y-1993900D02*
G01X965200Y-3009900D01*
G01X203200Y-1993900D02*
G01X203200Y-3009900D01*
G01X965200Y-3009900D02*
G01X965200Y-3517900D01*
G01X203200Y-3009900D02*
G01X203200Y-3517900D01*
G01X965200Y-3517900D02*
G01X203200Y-3517900D01*
G01X203200Y-3136900D02*
G02X203200Y-3467100I-133536J-165100D01*
G01X1811208Y-2848741D02*
G01X2251207Y-2848741D01*
G01X2251207Y-1898740D02*
G01X2251207Y-1909619D01*
G01X2251207Y-2837862D02*
G01X2251207Y-2848741D01*
G01X1811208Y-1898740D02*
G01X1811208Y-1909619D01*
G01X1811208Y-2837862D02*
G01X1811208Y-2848741D01*
G01X2251207Y-1898740D02*
G01X2131207Y-1898740D01*
G01X1811208Y-1898740D02*
G01X1931208Y-1898740D01*
G01X1931208Y-1898740D02*
G03X2123288Y-1898344I95950J43878D01*
G01X2481207Y-41300D02*
G01X1481201Y-41300D01*
G01X2481207Y-541299D02*
G01X1481201Y-541299D01*
G01X1481201Y-641299D02*
G01X2481263Y-641350D01*
G01X2481263Y-641350D02*
G01X2481263Y158750D01*
G01X2481263Y158750D02*
G01X1481265Y158750D01*
G01X1481265Y158750D02*
G01X1481265Y-641350D01*

G04 Circle Start*
G01X2616200Y-628995D02*
G03X2652878Y-628995I18339J0D01*
G03X2616200Y-628995I-18339J0D01*
G01X1701190Y-1893335D02*
G03X1721206Y-1893335I10008J0D01*
G03X1701190Y-1893335I-10008J0D01*
G04 Circle End*

M02*

