G04 Layer: TopPasteMaskLayer*
G04 EasyEDA Pro v2.2.32.3, 2024-11-28 11:51:39*
G04 Gerber Generator version 0.3*
G04 Scale: 100 percent, Rotated: No, Reflected: No*
G04 Dimensions in millimeters*
G04 Leading zeros omitted, absolute positions, 3 integers and 5 decimals*
%FSLAX35Y35*%
%MOMM*%
%ADD10R,1.5X0.9*%
%ADD11R,0.9X1.5*%
%ADD12R,1.5X0.9*%
%ADD13R,0.9X0.9*%
%ADD14R,2.61998X5.11998*%
%ADD15R,1.8034X0.4064*%
G75*


G04 Pad Start*
G54D10*
G01X2745054Y-734939D03*
G01X2745054Y-861939D03*
G01X2745054Y-988939D03*
G01X2745054Y-1115939D03*
G01X2745054Y-1242939D03*
G01X2745054Y-1369939D03*
G01X2745054Y-1496939D03*
G01X2745054Y-1623939D03*
G01X2745054Y-1750939D03*
G01X2745054Y-1877939D03*
G01X2745054Y-2004939D03*
G01X2745054Y-2131939D03*
G01X2745054Y-2258939D03*
G01X2745054Y-2385939D03*
G54D11*
G01X2921559Y-2513929D03*
G01X3048559Y-2513929D03*
G01X3175559Y-2513929D03*
G01X3302559Y-2513929D03*
G01X3429559Y-2513929D03*
G01X3556559Y-2513929D03*
G01X3683559Y-2513929D03*
G01X3810559Y-2513929D03*
G01X3937559Y-2513929D03*
G01X4064559Y-2513929D03*
G01X4191559Y-2513929D03*
G01X4318559Y-2510932D03*
G54D12*
G01X4495063Y-2385939D03*
G01X4495063Y-2258939D03*
G01X4495063Y-2131939D03*
G01X4495063Y-2004939D03*
G01X4495063Y-1877939D03*
G01X4495063Y-1750939D03*
G01X4495063Y-1623939D03*
G01X4495063Y-1496939D03*
G01X4495063Y-1369939D03*
G01X4495063Y-1242939D03*
G01X4495063Y-1115939D03*
G01X4495063Y-988939D03*
G01X4495063Y-861939D03*
G01X4495063Y-734939D03*
G54D13*
G01X3470046Y-1506946D03*
G01X3330042Y-1506946D03*
G01X3610051Y-1506946D03*
G01X3610051Y-1366942D03*
G01X3470046Y-1366942D03*
G01X3330042Y-1366942D03*
G01X3330042Y-1646951D03*
G01X3470046Y-1646951D03*
G01X3610051Y-1646951D03*
G54D14*
G01X2031213Y-2373751D03*
G54D15*
G01X2351202Y-1950841D03*
G01X2351202Y-2015839D03*
G01X2351202Y-2080838D03*
G01X2351202Y-2145836D03*
G01X2351202Y-2210835D03*
G01X2351202Y-2275834D03*
G01X2351202Y-2340832D03*
G01X2351202Y-2405501D03*
G01X2351202Y-2470499D03*
G01X2351202Y-2535498D03*
G01X2351202Y-2600496D03*
G01X2351202Y-2665495D03*
G01X2351202Y-2730494D03*
G01X2351202Y-2795492D03*
G01X1711198Y-2795822D03*
G01X1711198Y-2730824D03*
G01X1711198Y-2665825D03*
G01X1711198Y-2600827D03*
G01X1711198Y-2535828D03*
G01X1711198Y-2470829D03*
G01X1711198Y-2405831D03*
G01X1711198Y-2340832D03*
G01X1711198Y-2275834D03*
G01X1711198Y-2210835D03*
G01X1711198Y-2145836D03*
G01X1711198Y-2080838D03*
G01X1711198Y-2015839D03*
G01X1711198Y-1950841D03*
G04 Pad End*

M02*

